# xmcd
#
# Track frame offsets:
#	150
#	13732
#	36657
#	49665
#	76062
#	89725
#	113657
#	127945
#	144242
#	157032
#	170770
#	185272
#	196895
#	209022
#	222812
#	234082
#	258262
#	276970
#	293387
#	310425
# Disc length: 4414 seconds
# Revision: 2
# Processed by: cddbd v1.5.1PL2 Copyright (c) Steve Scherf et al.
#
# Submitted via: libkcddb 0.21
#
DISCID=1c113c14
DTITLE=Best Of Jazz - CD 3
DYEAR=1900
DGENRE=Jazz
TTITLE0=Count Basie - a Little tempo Please
TTITLE1=Lee Morgan - C.T.A.
TTITLE2=Bud Powell - Dance Of The Infidels
TTITLE3=Wayne Shorter - Fee-Fi-Fo-Fum
TTITLE4=Benny Carter - I Surrender Dear
TTITLE5=McCoy Tyner - Smitty's Place
TTITLE6=Duke Ellington - Stormy Weather
TTITLE7=Gerry Mulligan - Walkin' Shoes
TTITLE8=Benny Carter - Riffamarole
TTITLE9=Chet Baker - but Not For Me
TTITLE10=Mose Allison - Ever Since I Stole The Blues
TTITLE11=Dinah Washington - Funny Thing
TTITLE12=Stan Kenton - Round Robin
TTITLE13=Bud Powell - Collard Greens And Black-Eyed Peas
TTITLE14=Dinah Washington - Just One More Chance
TTITLE15=Horage Silver - Activation
TTITLE16=Art Pepper - Long Ago And Far Away
TTITLE17=Mose Allison - My Backyard
TTITLE18=Art Pepper - Bunny
TTITLE19=Chet Baker - Halema
EXTD=
EXTT0=
EXTT1=
EXTT2=
EXTT3=
EXTT4=
EXTT5=
EXTT6=
EXTT7=
EXTT8=
EXTT9=
EXTT10=
EXTT11=
EXTT12=
EXTT13=
EXTT14=
EXTT15=
EXTT16=
EXTT17=
EXTT18=
EXTT19=
PLAYORDER=
